<?xml version="1.0" encoding="UTF-8"?>
<svg id="Layer_1" data-name="Layer 1" xmlns="http://www.w3.org/2000/svg" viewBox="0 0 556.22 123.89">
  <g>
    <g>
      <path d="m7.74,32.59c.62-.09,1.23-.13,1.85-.13,3.26,0,5.18.29,5.76.86.22.22.33.64.33,1.26,0,.84-.22,2.87-.66,6.09-.75,5.29-1.17,8.16-1.26,8.6-.13.66-.2,1.21-.2,1.66,0,.09.02.2.07.33v.13s.11.07.2.07c.75,0,2.76-1.9,6.02-5.69,1.68-1.94,3.9-4.39,6.68-7.35,1.5-1.5,2.55-2.48,3.14-2.94.6-.46,1.16-.69,1.69-.69,1.01,0,2.34.67,3.97,2.02,1.63,1.34,2.45,2.44,2.45,3.27,0,.62-1.65,2.67-4.96,6.15-2.07,2.16-3.42,3.65-4.04,4.47s-.93,1.49-.93,2.02c0,.88,1.04,3.04,3.11,6.48,4.01,6.53,6.56,10.82,7.64,12.87,1.08,2.05,1.62,3.58,1.62,4.6,0,.75-.23,1.39-.69,1.92-.46.53-1.42,1.28-2.88,2.25-1.02.7-1.92,1.06-2.71,1.06-.71,0-1.32-.31-1.85-.93-.57-.66-1.96-2.95-4.17-6.88-4.59-8.25-7.15-12.72-7.67-13.43-.26-.35-.46-.53-.6-.53-.35,0-1.83,1.39-4.43,4.17-.31.35-.55.62-.73.79l-3.77,4.1-.33,6.42c-.04,1.28-.09,2.22-.13,2.81-.04.6-.11,1.29-.2,2.08s-.16,1.32-.23,1.59c-.07.26-.22.6-.46.99-.24.4-.45.63-.63.69-.18.07-.51.17-.99.3-.49.13-.9.21-1.26.23-.35.02-.93.03-1.72.03h-1.52c-1.5,0-2.43-.2-2.78-.59-.31-.36-.46-1.35-.46-2.98,0-2.95.51-8.42,1.52-16.41.79-6.44,1.54-12.83,2.25-19.19.13-1.19.29-2.53.46-4,.18-1.48.32-2.68.43-3.61.11-.92.19-1.52.23-1.78.13-1.02.42-1.76.86-2.25.44-.49,1.1-.8,1.98-.93Z" style="fill: #231f20;"/>
      <path d="m70.13,32.85c.31-.35,1.83-.53,4.56-.53,2.34,0,3.75.17,4.23.5.48.33.73,1.25.73,2.74,0,1.02.33,3.33.99,6.95,2.12,11.03,3.44,18.24,3.97,21.63.84,4.63,1.46,7.59,1.85,8.87.93,3.13,1.39,4.94,1.39,5.42,0,.26-.13.49-.4.66-.35.22-1.94.33-4.76.33-2.6,0-4.18-.25-4.73-.76-.55-.51-1.07-2.19-1.55-5.06l-.73-4.3-6.02-.13h-1.98c-2.82,0-4.32.15-4.5.46-.09.09-1.37,2.51-3.84,7.28-2.29,4.46-3.77,6.75-4.43,6.88h-.2c-.62,0-1.72-.46-3.31-1.39s-2.74-1.79-3.44-2.58c-.31-.4-.46-.68-.46-.86,0-.53,1.59-4.23,4.76-11.11,2.25-4.76,4.02-8.48,5.33-11.15,1.3-2.67,2.23-4.53,2.78-5.59.55-1.06,1.46-2.75,2.71-5.06s2.55-4.75,3.87-7.31c1.72-3.4,2.78-5.36,3.18-5.89Zm2.91,24.28c0-.75-.09-1.76-.26-3.04-.18-1.28-.4-1.92-.66-1.92-.22,0-.72.82-1.49,2.45s-1.16,2.69-1.16,3.17c0,.4.64.6,1.92.6.75,0,1.21-.06,1.39-.2.18-.13.26-.48.26-1.06Z" style="fill: #231f20;"/>
    </g>
    <g>
      <path d="m223.77,63.94c-.12-.74-.48-1.7-1.05-2.83-.66-1.47-1.57-2.81-2.71-4.05-1.1-1.18-1.65-1.88-1.65-2.11,0-.31.62-1.12,1.84-2.44,1.94-2.21,2.92-4.65,2.92-7.36,0-2.23-.68-4.36-2.09-6.35-1.39-1.98-3.35-3.56-5.91-4.76-1.05-.5-1.98-.79-2.81-.93-.81-.12-2.38-.23-4.65-.27h-1.2c-3.04,0-5.6.17-7.67.48-1.9.31-3.29.66-4.18,1.05-.89.39-1.51.97-1.86,1.72-.21.39-.66,6.14-1.34,17.2-.68,11.08-1.1,19.37-1.22,24.87l-.14,4.71,2.46.52c2.34.43,5,.79,8,1.05,1.8.23,3.39.33,4.76.33s2.79-.17,4.38-.52c1.24-.25,2.38-.56,3.41-.89-1.84-1.65-3.62-3.43-5.29-5.27-.91-1.01-1.8-2.03-2.65-3.08-1.72.6-3.1.89-4.16.89-.52,0-.87-.08-1.05-.25-.35-.31-.52-2.56-.52-6.76s.17-6.41.52-6.55c.27-.12.81-.21,1.59-.23.23-.02.45-.02.72-.02.31,0,.6,0,.89.02,2.01.04,3.66.25,4.94.64,1.26.35,2.48,1.03,3.64,2.05,1.14,1.01,1.72,1.88,1.72,2.58,0,.79-.25,1.65-.76,2.56-.5.93-1.12,1.65-1.82,2.19-.14.12-.29.23-.45.31,2.34,2.98,4.88,5.81,7.65,8.46,1.74-1.3,3.35-3.25,4.78-5.79.54-1.01.87-1.86.99-2.54.14-.68.21-2.11.21-4.26s-.06-3.62-.21-4.38Zm-12.63-17.2c-.66,1.28-2.01,2.63-4.03,4.01-2.03,1.39-3.6,2.09-4.69,2.09-.35,0-.6-.08-.74-.21-.21-.23-.41-1.74-.58-4.57-.06-.74-.08-1.59-.08-2.5,0-.76.06-1.26.17-1.53.12-.27.39-.52.83-.79,1.82-1.2,3.89-1.8,6.22-1.8,1.28,0,2.23.25,2.85.72.43.45.66,1.16.66,2.13,0,.89-.21,1.7-.6,2.44Z" style="fill: #231f20;"/>
      <path d="m265.55,49.69c-.45-2.15-1.32-4.57-2.6-7.26-1.01-2.15-2.34-4.11-3.95-5.85-1.61-1.74-3.23-2.98-4.86-3.74-1.28-.56-2.36-.85-3.25-.85-.58,0-1.43.17-2.58.52-1.63.62-3.66,1.96-6.08,4.03-2.42,2.09-4.22,3.97-5.35,5.71-.85,1.28-1.84,3.45-2.98,6.53-1.16,3.1-1.9,5.58-2.25,7.48-.35,2.11-.54,4.73-.54,7.88,0,2.69.14,4.76.41,6.22.52,2.89,2.05,5.71,4.55,8.39,1.7,1.8,3.25,3.08,4.71,3.8,1.45.72,3.23,1.16,5.35,1.28.62.06,1.32.08,2.11.08,1.16,0,2.46-.37,3.91-1.14,2.77-1.36,5-2.96,6.68-4.76,1.67-1.82,3.37-4.47,5.11-7.94.91-1.94,1.53-3.72,1.84-5.35.31-1.63.48-4.01.48-7.15s-.25-5.77-.7-7.9Zm-8.56,12.98c-.54,2.79-1.14,4.92-1.82,6.43-.68,1.49-1.7,2.92-3.02,4.24-1.1,1.1-1.88,1.78-2.32,2.01-.43.25-1.05.37-1.86.37-2.11,0-3.7-.91-4.76-2.71-.58-.97-1.07-2.54-1.49-4.73s-.62-4.11-.62-5.79c0-.58.02-.99.06-1.26.17-1.72.58-3.72,1.18-6.02.62-2.29,1.24-4.07,1.86-5.35.54-1.12,1.43-2.52,2.71-4.24,1.28-1.72,2.05-2.58,2.32-2.58.19,0,.87.48,2.05,1.39,4.07,3.31,6.1,7.88,6.1,13.71,0,1.45-.14,2.98-.39,4.55Z" style="fill: #231f20;"/>
    </g>
    <path d="m112.67,73.02c.1.12.21.23.29.35.08-.08.17-.17.25-.25-.19-.04-.35-.06-.54-.1Zm72.34-28.61c-.31-.19-.56-.52-.74-.83-.72-1.26-1.39-2.54-2.11-3.76-.52-.85-1.1-1.7-1.72-2.46-.41-.54-.91-1.05-1.47-1.39-1.82-1.08-3.6-2.15-5.13-3.64-.95-.91-1.98-1.74-2.98-2.63-.87-.76-1.22-.79-2.07.02-2.15,2.11-4.3,4.2-6.41,6.37-4.01,4.11-7.98,8.27-11.97,12.43-.72.74-1.47,1.49-2.19,2.25-.85.89-1.92,1.2-3.02.76-1.14-.48-2.25-1.08-3.2-1.86-3.18-2.6-5.52-5.93-7.84-9.26-.56-.81-1.1-1.63-1.67-2.48-.48.62-.93,1.2-1.36,1.78-2.07,2.6-4.28,5.04-7.09,6.86-1.63,1.08-3.35,1.92-5.44,1.7-.06.21-.12.39-.17.58-.64,2.11-1.45,4.11-2.87,5.83-1.41,1.7-3.16,2.85-5.42,3.02-1.22.08-2.46-.1-3.51-.17-1.49,1.84-2.87,3.78-4.51,5.48-4.94,5.19-10.85,9.1-17.04,12.63-.04.04-.12.02-.25.02v-.14c-1.08.85-2.71,1.98-4.96,3.04.02,0,.06.02.08.02.1.04.19.06.29.08,2.77.64,5.5.41,8.19-.39,4.67-1.41,8.68-3.97,12.43-7.03.27-.23.7-.35,1.03-.31,1.7.27,3.37.6,5.04.93,1.9.37,3.82.76,5.73,1.16-.41-.54-.83-1.07-1.26-1.61-.76-1.01-.91-2.09-.25-3.2.56-.93,1.12-1.82,1.72-2.71.54-.83,1.03-1.01,1.92-.68,3.27,1.16,6.53,2.34,9.8,3.51.48.17.95.35,1.43.54,0-.06.02-.1.04-.14-.68-.79-1.47-1.53-2.05-2.4-.72-1.1-1.49-2.25-1.94-3.49-.66-1.82.33-3.29,2.21-3.7.45-.1.91-.25,1.28-.52.29-.19.54-.56.66-.89.21-.5.27-1.03.41-1.55.27-.87.81-1.74.76-2.58-.08-1.76.76-3.04,1.76-4.3.89-1.16,1.88-2.23,2.83-3.35.33-.37.72-.43,1.12-.17.27.19.52.43.74.68,2.83,3.39,5.66,6.8,8.5,10.19,1.26,1.51,1.32,1.96.39,3.66-.04.04-.04.08-.06.12-.97,1.45-1.82,2.98-2.92,4.3-2.75,3.29-6.12,5.89-9.57,8.41-.21.14-.39.29-.66.5.21.08.29.14.37.17,3.16.89,6.06.31,8.7-1.59,2.05-1.47,3.56-3.41,4.78-5.58.12-.21.23-.41.35-.6,4.26,1.28,8.44,2.52,12.61,3.78-1.41-1.16-2.89-2.15-4.36-3.16-.56-.37-1.12-.72-1.61-1.16-.54-.45-.45-.7.21-.95.85-.33,1.7-.64,2.5-1.03.66-.33.93-.95.72-1.67-.17-.56-.56-1.08-.6-1.61-.08-1.34-.02-2.69-.02-4.13,5.6,3.76,11.16,7.46,16.7,11.16.04-.04.08-.1.12-.14-.17-.29-.35-.58-.52-.87-2.09-3.43-4.05-6.93-5.27-10.77-.5-1.55-.83-3.12-.68-4.76.12-1.47.68-2.87,2.17-3.29,1.41-.37,1.8-1.18,1.86-2.42.04-.37.12-.72.23-1.07.66-2.19,1.3-4.4,2.05-6.57.19-.58.64-1.07,1.01-1.67,6.33,6.99,12.53,13.85,18.83,20.82l.27-9.18c-1.65-.97-3.33-1.92-4.96-2.92Z" style="fill: #231f20;"/>
    <g>
      <path d="m241.54,89.01c-1.99,1.3-4.1,2.02-6.35,2.36-4.73.7-9.14-.41-13.34-2.5-5.22-2.6-9.57-6.34-13.46-10.62-2.19-2.4-4.18-4.98-6.23-7.51-.2-.24-.34-.68-.27-.98.45-2,.96-3.99,1.45-5.99.03-.11.08-.22.18-.48.21.32.35.53.48.74,3.79,6.17,8.09,11.95,13.39,16.93,3.39,3.19,7.08,5.95,11.48,7.61,3.99,1.51,8.04,1.82,12.14.45.11-.04.23-.07.35-.09.02,0,.04.02.18.07Z" style="fill: #231f20;"/>
      <path d="m210.32,84.62c6.94,6.41,15.27,9.34,24.54,9.96-8.43,1.22-21.2-3.97-24.54-9.96Z" style="fill: #231f20;"/>
    </g>
  </g>
  <g>
    <path d="m300.67,32.97c2.19-.18,3.97-.27,5.34-.27s3.28.16,5.89.48c3.38.41,6.87.62,10.47.62h4.31c2.74,0,4.45.21,5.13.62.82.55,1.3,1.03,1.44,1.44l.07.14v.21c0,.5-.15,1.43-.44,2.77-.3,1.35-.61,2.63-.92,3.87-.32,1.23-.48,1.89-.48,1.98-.09.5-.26.87-.51,1.1-.25.23-.74.34-1.47.34-.78,0-2.3-.18-4.59-.55-3.15-.5-5.09-.75-5.82-.75-.23,0-.43.01-.62.03-.18.02-.34.08-.48.17-.14.09-.25.17-.34.24-.09.07-.19.21-.31.41-.11.21-.19.38-.24.51-.05.14-.13.38-.24.72-.11.34-.22.61-.31.79-1.78,4.7-3.01,14.94-3.7,30.73-.05,1.28-.08,2.19-.1,2.74-.02.55-.1,1.21-.24,1.98s-.23,1.29-.27,1.54c-.05.25-.24.58-.58.99s-.61.65-.79.72c-.18.07-.58.18-1.2.34-.62.16-1.14.26-1.57.31-.43.04-1.18.11-2.22.2-2.46.18-3.72.27-3.76.27-.78,0-1.48-.3-2.12-.89-.59-.55-.89-1.23-.89-2.05,0-.87.3-2.69.89-5.48.41-1.96.97-5.91,1.68-11.84.71-5.93,1.15-10.36,1.33-13.28.18-3.28.34-5.54.48-6.78l.27-2.19-1.64-.48c-1.1-.32-2.3-.48-3.63-.48s-2.35-.23-2.94-.68c-.59-.41-.89-1-.89-1.78,0-.18.05-.87.14-2.05.23-3.33.91-5.36,2.05-6.09.32-.23,1.6-.43,3.83-.62Z" style="fill: #231f20;"/>
    <path d="m352.34,33.79c.41-.14,1.41-.21,3.01-.21,4.29,0,7.85.23,10.68.68,3.24.5,6.02,2.51,8.35,6.02,1.41,2.15,2.12,4.17,2.12,6.09,0,.46-.09,1.37-.27,2.74-.96,5.79-3.35,9.97-7.19,12.52-1.51,1.05-2.26,1.71-2.26,1.98,0,.5.34,1.73,1.03,3.7.46,1.28.95,3.23,1.47,5.85s1.04,4.6,1.54,5.92c.87,2.1,1.32,3.54,1.37,4.31.05.23.07.52.07.89,0,.5-.27.88-.82,1.13-.55.25-1.96.72-4.24,1.4-1.51.46-2.56.68-3.15.68-.18,0-.41-.05-.68-.14-.46-.32-1.53-3.67-3.22-10.06-1.69-6.52-2.67-9.92-2.94-10.2-.32-.37-1.05-.55-2.19-.55s-1.71.16-1.85.48c-.32.87-.67,2.83-1.06,5.89s-.65,5.86-.79,8.42c-.18,3.97-.48,6.07-.89,6.3-.37.27-1.76.5-4.17.68-1.19.09-1.96.14-2.33.14-1.1,0-1.86-.16-2.29-.48-.43-.32-.65-.91-.65-1.78,0-.59.21-1.92.62-3.97.23-1.14.64-4.43,1.23-9.86.91-9.54,2.3-20.51,4.17-32.92.41-2.97,2.19-4.86,5.34-5.68Zm12.11,11.43c-.73-.68-1.71-1.03-2.94-1.03h-.48c-2.56,0-4.02.52-4.38,1.57-.18.55-.4,2.17-.65,4.86-.25,2.69-.38,4.61-.38,5.75,0,.37.02.57.07.62.05.05.11.07.2.07.46,0,1.32-.31,2.6-.92,1.28-.62,2.37-1.27,3.29-1.95,2.55-2.01,3.83-4.13,3.83-6.36,0-1.09-.39-1.96-1.16-2.6Z" style="fill: #231f20;"/>
    <path d="m407.57,33.51c.32-.36,1.89-.55,4.72-.55,2.42,0,3.88.17,4.38.51.5.34.75,1.29.75,2.84,0,1.05.34,3.45,1.03,7.19,2.19,11.41,3.56,18.87,4.11,22.38.87,4.79,1.51,7.85,1.92,9.17.96,3.24,1.44,5.11,1.44,5.61,0,.27-.14.5-.41.68-.37.23-2.01.34-4.93.34-2.69,0-4.32-.26-4.89-.79s-1.11-2.27-1.61-5.24l-.75-4.45-6.23-.14h-2.05c-2.92,0-4.47.16-4.65.48-.09.09-1.41,2.6-3.97,7.53-2.37,4.61-3.9,6.98-4.59,7.12h-.2c-.64,0-1.78-.48-3.42-1.44s-2.83-1.85-3.56-2.67c-.32-.41-.48-.71-.48-.89,0-.55,1.64-4.38,4.93-11.5,2.33-4.93,4.16-8.77,5.51-11.53,1.35-2.76,2.3-4.69,2.87-5.78.57-1.1,1.51-2.84,2.81-5.24s2.63-4.92,4-7.56c1.78-3.51,2.87-5.54,3.29-6.09Zm3.01,25.12c0-.77-.09-1.82-.27-3.15-.18-1.32-.41-1.98-.68-1.98-.23,0-.74.85-1.54,2.53-.8,1.69-1.2,2.78-1.2,3.28,0,.41.66.62,1.98.62.78,0,1.25-.07,1.44-.21.18-.14.27-.5.27-1.1Z" style="fill: #231f20;"/>
    <path d="m438.44,33.03c1.92-.18,3.31-.27,4.17-.27h2.33l.27,6.71c.32,5.34.55,8.42.68,9.24.23,1.14.48,4.08.75,8.83.32,6.8.75,10.2,1.3,10.2.23,0,.96-1.01,2.19-3.04s2.44-4.28,3.63-6.74c.78-1.6,2.05-3.74,3.83-6.43,2.46-3.65,4.33-7.14,5.61-10.47.59-1.55,1.2-2.63,1.81-3.25.62-.62,1.45-.92,2.5-.92.09,0,.23.01.41.03.18.02.32.03.41.03,1.41.14,2.7.58,3.87,1.33s1.75,1.52,1.75,2.29c0,.73-2.15,5.48-6.43,14.23-4.29,8.76-6.43,13.23-6.43,13.42,0,.14-.71,1.57-2.12,4.31-1.28,2.51-2.51,5.34-3.7,8.49-1.05,2.92-1.96,4.72-2.74,5.41s-2.35,1.12-4.72,1.3c-.41.05-1,.07-1.78.07-3.15,0-5.18-.57-6.09-1.71-1.19-1.42-2.1-8.28-2.74-20.6-.32-6.85-.64-11.49-.96-13.93-.32-2.44-.96-5.44-1.92-9-.78-2.87-1.16-4.9-1.16-6.09,0-1,.42-1.77,1.27-2.29.84-.52,2.18-.9,4-1.13Z" style="fill: #231f20;"/>
    <path d="m510.43,42.82c-.73,0-2.51.21-5.34.62-2.83.41-4.59.62-5.27.62-1,0-1.69.18-2.05.55-.23.32-.65,1.87-1.27,4.65-.62,2.78-.93,4.59-.93,5.41,0,.59.18.89.55.89.09,0,.46-.04,1.1-.14,1.28-.23,3.1-.41,5.48-.55.73-.04,1.55-.07,2.46-.07,1,0,1.62.23,1.85.68.18.23.27,1.12.27,2.67,0,4.11-.25,6.53-.75,7.25-.18.27-1.53.46-4.04.55-2.37,0-4.24.09-5.61.27l-1.92.27-1.23,4.24c-.64,2.15-.96,3.58-.96,4.31,0,.27,2.21.5,6.64.68,4.06.14,6.39.39,6.98.75.41.27.62.73.62,1.37,0,.27-.09,1-.27,2.19-.32,1.78-.48,3.35-.48,4.72,0,1.05-.11,1.77-.34,2.16-.23.39-.78.58-1.64.58-.78,0-1.96-.14-3.56-.41-2.92-.5-6.71-.8-11.36-.89-4.79-.14-7.3-.39-7.53-.75-.14-.23-.21-.68-.21-1.37,0-4.2,1.57-13.98,4.72-29.36,1.64-7.85,2.53-12.66,2.67-14.44.14-1.51.3-2.51.48-3.01.18-.5.62-1.12,1.3-1.85l1.57-1.57,7.26-.41c5.47-.27,9.01-.41,10.61-.41s2.53.14,2.81.41c.32.32.48,1.64.48,3.97s-.2,3.7-.58,4.38c-.39.68-1.22,1.03-2.5,1.03Z" style="fill: #231f20;"/>
    <path d="m530.62,32.83c.27-.05.89-.07,1.85-.07,4.24,0,6.66.25,7.25.75.37.27.48.87.34,1.78-.18,1-.46,2.57-.82,4.69-.37,2.12-.72,4.13-1.06,6.02-.34,1.89-.72,3.71-1.13,5.44-1.23,5.75-2.17,11.5-2.81,17.25-.37,3.19-.59,4.97-.68,5.34l-.27,1.16,4.93.34c.64.05,1.76.07,3.35.07,2.6,0,4.86-.07,6.78-.21,2.19-.14,4.04-.2,5.54-.2h.82c1,.18,1.51.82,1.51,1.92,0,.73-.14,1.71-.41,2.94-.78,3.38-1.67,5.34-2.67,5.89-1.46.77-8.05,1.3-19.78,1.57l-11.02.27-.68-.96c-.32-.55-.48-1.12-.48-1.71,0-.09.01-.21.03-.34.02-.14.03-.23.03-.27.18-.82.43-3.67.75-8.56.27-3.24,1-9.95,2.19-20.12.68-5.57,1.21-9.65,1.57-12.25.36-2.6.8-4.8,1.3-6.6.5-1.8.99-2.91,1.47-3.32.48-.41,1.17-.68,2.09-.82Z" style="fill: #231f20;"/>
  </g>
</svg>