<?xml version="1.0" encoding="UTF-8"?>
<svg id="Layer_1" data-name="Layer 1" width="24" height="24" xmlns="http://www.w3.org/2000/svg" viewBox="0 0 383.4 382.92">
  <path d="m18.03,293.35c-13.48.24-12.03-3.22-11.99-12.17.03-5.49,0-10.98,0-16.47.02-5.43,1.97-7.35,7.45-7.39,1.35,0,2.71,0,4.53,0,0-1.57,0-2.89,0-4.22,0-13.47.53-26.97-.15-40.41-.69-13.65,7.53-26.13,24.11-27.57,0-1.43,0-2.9,0-4.37,0-31.93,0-63.87,0-95.8,0-15.25,10.02-25.27,25.28-25.27,82.96,0,165.93,0,248.89,0,15.25,0,25.28,10.03,25.29,25.26.01,31.93,0,63.87,0,95.8,0,1.47,0,2.95,0,4.35,13.45,2,20.96,8.23,23.45,19.4.43,1.92.48,3.95.49,5.93.04,15.45.02,30.91.02,46.89,2.13,0,4.08-.07,6.02.02,3.59.17,5.87,2.31,5.92,5.88.11,7.98.1,15.97,0,23.95-.04,3.77-2.33,5.9-6.14,6.05-1.74.07-3.49.01-5.58.01-.08,1.18-.21,2.25-.21,3.32-.02,6.74.04,13.47-.03,20.21-.04,3.9-2.14,6.3-5.79,6.38-6.11.13-12.23.11-18.34,0-3.34-.06-5.15-2.08-5.8-5.28-1.47-7.32-3.03-14.62-4.39-21.96-.36-1.97-1.07-2.94-3.13-2.68-.61.08-1.25.01-1.87.01-89.58,0-179.15.02-268.73-.07-3.3,0-4.78.62-5.31,4.21-.99,6.76-2.59,13.43-4.04,20.12-.92,4.28-2.66,5.65-6.96,5.68-5.24.03-10.48.03-15.72,0-5.24-.02-7.27-2.01-7.29-7.18-.03-7.46,0-14.91,0-22.65Zm47.92-107.98c0-8.25-.05-16.2.01-24.15.09-13.04,10.53-23.61,23.5-23.65,24.2-.07,48.41-.06,72.61,0,10.92.02,20.3,7.38,22.86,18,.63,2.62.71,5.42.75,8.14.1,7.18.03,14.36.03,21.45h12.01c0-7.78-.01-15.26,0-22.74.03-14.72,10.18-24.86,24.93-24.87,22.96-.01,45.92.42,68.87-.16,14.85-.38,27,11.27,26.05,26.24-.46,7.16-.08,14.37-.08,21.55h12.01v-3.6c0-31.94,0-63.87,0-95.81,0-9.46-4.76-14.13-14.34-14.13-82.34,0-164.69,0-247.03,0-9.51,0-14.18,4.72-14.18,14.3,0,31.81,0,63.62,0,95.43v4.01h12.01Zm287.51,71.83c0-15.2,0-30.02,0-44.85,0-10.55-4.43-14.95-15.03-14.95-97.8,0-195.6,0-293.4,0-1,0-2-.03-2.99.02-6.78.33-11.93,5.17-11.99,11.92-.14,15.71,0,31.43.04,47.14,0,.2.25.4.46.72h322.91Zm-335.29,23.81h346.96v-11.54H18.17v11.54Zm155.54-95.69c0-8.45.26-16.54-.08-24.61-.28-6.4-5.39-11.13-11.87-11.17-23.93-.12-47.87-.11-71.81,0-6.07.03-11.27,4.11-11.69,10.03-.59,8.5-.15,17.08-.15,25.75h95.6Zm131.79,0c0-8.35.21-16.32-.07-24.28-.23-6.57-5.32-11.47-11.95-11.5-23.93-.12-47.87-.11-71.81,0-5.95.03-11.1,3.91-11.54,9.71-.65,8.61-.17,17.31-.17,26.07h95.53ZM40.49,293.51h-10.34v17.72c1.63,0,3.16.27,4.52-.09,1.04-.28,2.47-1.22,2.68-2.12,1.2-5.07,2.09-10.21,3.13-15.51Zm302.39-.1c.99,4.82,2.27,9.4,2.77,14.07.37,3.45,1.95,4.17,4.86,3.76.93-.13,1.87-.2,2.76-.29v-17.54h-10.39Z"/>
</svg>