<?xml version="1.0" encoding="UTF-8"?>
<svg id="Layer_1" data-name="Layer 1" width="24" height="24" xmlns="http://www.w3.org/2000/svg" viewBox="0 0 360.13 383.04">
  <path d="m45.6,383.04c-.86-9.68-1.63-19.36-2.59-29.03-2.35-23.82-4.77-47.64-7.16-71.46-2.64-26.3-5.29-52.6-7.92-78.9-.74-7.43-1.45-14.86-2.2-22.53h168.07c-4.33,1.12-8.87,1.95-13.14,3.5-4.43,1.6-8.88,3.47-12.86,5.96-21.08,13.14-32.21,32.21-32.84,57.04-.36,14.09-.07,28.19-.07,42.29,0,.97,0,1.94,0,3.18h22.22v22.51h-22.9c.72,15.58,1.02,30.74,2.27,45.82.67,8.05,5.37,14.89,9.67,21.63H45.6Z"/>
  <path d="m186.65,383.04c-5.12-2.17-10.71-3.63-15.25-6.66-9.19-6.14-13.57-15.36-13.97-26.38-.14-3.83-.02-7.67-.02-11.68h201.95c3.72,21.39-6.06,39.46-26.56,44.04-.72.16-1.4.46-2.1.69h-144.05Z"/>
  <path d="m359.95,270.61h-202.57c.56-15.64-2.6-31.58,6.71-45.84,8.91-13.64,21.49-21.19,37.78-21.31,37.87-.27,75.75-.2,113.62-.05,24.4.1,44.18,20.03,44.45,44.42.08,7.47.01,14.94.01,22.78Z"/>
  <path d="m0,158.18v-45.2h247.11v45.2H0Z"/>
  <path d="m44.94,22.18V0h65.01c3.28,13.06,6.79,26.15,9.76,39.36.94,4.17,2.42,5.46,6.8,5.41,22.74-.27,45.49-.08,68.24-.18,2.46-.01,3.73.65,4.83,2.95,6.37,13.25,12.93,26.4,19.43,39.59.43.87.83,1.76,1.4,2.96H26.94c.52-1.2.96-2.33,1.49-3.41,6.39-12.97,12.85-25.89,19.12-38.91,1.13-2.35,2.41-3.22,5.06-3.19,13.62.14,27.25.07,40.87.07,1.36,0,2.71,0,4.43,0-1.76-7.13-3.34-13.91-5.23-20.6-.24-.86-2.17-1.77-3.32-1.78-13.5-.12-27-.08-40.5-.08-1.31,0-2.62,0-3.92,0Z"/>
  <path d="m180.06,315.39v-21.99h157.21v21.99h-157.21Z"/>
</svg>