<?xml version="1.0" standalone="no"?>
<!DOCTYPE svg PUBLIC "-//W3C//DTD SVG 20010904//EN"
 "http://www.w3.org/TR/2001/REC-SVG-20010904/DTD/svg10.dtd">
<svg version="1.0" xmlns="http://www.w3.org/2000/svg"
 width="24" height="24" viewBox="0 0 512.000000 512.000000"
 preserveAspectRatio="xMidYMid meet">

<g transform="translate(0.000000,512.000000) scale(0.100000,-0.100000)"
fill="#000000" stroke="none">
<path d="M2175 4466 c-66 -29 -105 -106 -91 -178 4 -18 71 -150 150 -293 l144
-260 -52 -96 c-28 -52 -368 -676 -756 -1387 l-705 -1291 -222 -3 c-206 -3
-224 -4 -249 -24 -53 -39 -69 -71 -69 -134 0 -63 16 -95 69 -134 l27 -21 2139
0 2139 0 27 21 c53 39 69 71 69 134 0 63 -16 95 -69 134 -25 20 -43 21 -249
24 l-222 3 -754 1381 c-415 760 -754 1387 -754 1392 0 6 64 128 143 271 81
149 145 276 147 296 19 139 -150 233 -256 143 -17 -14 -70 -99 -122 -194 -51
-94 -95 -170 -99 -170 -4 0 -48 76 -98 168 -50 92 -102 178 -114 189 -46 43
-115 54 -173 29z m1010 -2213 c341 -625 639 -1172 663 -1215 l42 -78 -345 0
-345 0 0 273 c0 315 -8 368 -71 497 -103 208 -333 350 -569 350 -236 0 -463
-140 -568 -350 -64 -128 -72 -181 -72 -497 l0 -273 -345 0 -345 0 42 78 c24
43 322 590 663 1215 340 625 622 1137 625 1137 3 0 284 -512 625 -1137z m-474
-534 c67 -36 97 -68 137 -143 l27 -51 3 -282 3 -283 -321 0 -321 0 3 283 c3
277 3 283 28 332 42 86 123 152 215 176 62 17 161 2 226 -32z"/>
</g>
</svg>
