<?xml version="1.0" encoding="UTF-8"?>
<svg id="Layer_1" data-name="Layer 1" width="24" height="24" xmlns="http://www.w3.org/2000/svg" viewBox="0 0 215.64 359.32">
  <path d="m12.62,155.72c-2.12,0-3.85.03-5.58,0-4.83-.1-6.97-2.26-7-7.2-.04-7.11-.04-14.22,0-21.33.03-5.32,2.12-7.33,7.57-7.39,1.34-.01,2.68,0,4.41,0-.89-22.57,5.5-42.37,20.8-58.83,15.21-16.36,34.25-24.4,57.04-25.12,0-3.55,0-7.12,0-10.68,0-5.99-.04-11.97.01-17.96.04-4.94,2.17-7.12,7.03-7.16,7.23-.05,14.47-.05,21.7,0,5.04.03,7.15,2.22,7.17,7.41.03,9.34,0,18.68,0,28.36,22.47.69,41.67,8.63,56.96,25.07,15.31,16.46,21.75,36.24,20.86,58.93,2.16,0,3.99-.08,5.81.02,3.76.2,6.09,2.38,6.15,6.13.12,7.86.12,15.72,0,23.57-.06,3.76-2.37,5.97-6.12,6.16-2.09.11-4.18.02-6.46.02-1.81,15.32-3.57,30.28-5.34,45.23-3.14,26.61-6.28,53.22-9.41,79.84-2.36,20.05-4.81,40.09-7.02,60.16-1.31,11.98-8.11,18.38-20.22,18.38-35.42,0-70.85,0-106.27,0-12.32,0-18.94-6.33-20.34-18.65-3.25-28.73-6.76-57.43-10.13-86.15-3.12-26.49-6.19-52.98-9.3-79.47-.74-6.3-1.52-12.6-2.34-19.33Zm12.21.16c.05.92.05,1.54.12,2.16,3.39,28.59,6.8,57.17,10.16,85.76,3.81,32.43,7.58,64.86,11.38,97.28.5,4.25,2.65,6.25,6.92,6.25,36.29.03,72.58.03,108.87,0,4.07,0,6.32-1.99,6.79-5.98,3.06-25.86,6.06-51.73,9.1-77.6,2.86-24.38,5.75-48.76,8.62-73.14,1.35-11.49,2.69-22.99,4.06-34.69h-65.09c0,1.39,0,2.6,0,3.82,0,8.73.1,17.46-.04,26.19-.16,9.67-7.82,17.39-17.28,17.69-9.7.3-17.75-6.96-18.57-16.78-.4-4.78-2.68-7.33-6.35-7.13-3.68.21-5.65,2.89-5.66,7.77-.02,9.29,0,18.58,0,28.13,5.17,0,10.77-.02,16.36,0,5.43.03,7.56,2.07,7.58,7.38.03,11.1.04,22.2,0,33.3-.02,5.07-2.2,7.2-7.37,7.21-10.97.03-21.95.03-32.92,0-5.56-.01-7.58-2.09-7.6-7.74-.02-8.85.06-17.71-.09-26.56-.02-1.17-.89-2.84-1.87-3.4-6.96-4-10.1-9.93-10.05-17.89.1-15.96.03-31.92.03-47.89v-4.15h-17.11ZM89.7,48.1c-38.63-.3-69.31,34.05-65.31,71.45h65.31V48.1Zm36.33.01v71.38h65.45c2.77-42.5-31.18-71.97-65.45-71.38Zm77.41,83.9H12.29v11.55h191.15v-11.55Zm-149.53,23.88c0,17.75-.01,35.07,0,52.38,0,4.61,2.4,7.4,6.13,7.3,3.59-.09,5.81-2.78,5.83-7.22.04-7.47-.05-14.95.03-22.42.1-9.95,7.56-17.82,17.12-18.21,9.87-.4,17.94,6.89,18.76,16.93.37,4.54,2.56,7.04,6.11,6.97,3.71-.06,5.87-2.8,5.89-7.54.02-8.47.02-16.94,0-25.41,0-.94-.18-1.88-.26-2.77h-59.61Zm48.06-36.3h11.6V48.19h-11.6v71.4Zm-12.3,108.19h-23.54v23.47h23.54v-23.47Zm23.87-192V12.3h-11.52v23.49h11.52Z"/>
  <path d="m89.85,299.4c0-5.61-.04-11.23.01-16.84.05-4.88,2.21-7.04,7.13-7.06,11.23-.04,22.45-.04,33.68,0,4.87.02,7.04,2.22,7.06,7.13.04,11.23.05,22.45,0,33.68-.02,4.87-2.23,7.05-7.14,7.06-11.23.04-22.45.05-33.68,0-4.87-.02-7.02-2.22-7.06-7.14-.05-5.61-.01-11.23-.01-16.84Zm12.14,11.75h23.49v-23.49h-23.49v23.49Z"/>
  <path d="m174.22,221.59c-1.06,1.77-1.73,3.57-2.96,4.82-7.49,7.65-15.06,15.22-22.69,22.73-3.36,3.31-6.37,3.26-9.75-.09-7.61-7.53-15.19-15.09-22.71-22.72-3.19-3.23-3.21-6.26-.05-9.47,7.6-7.72,15.26-15.38,22.98-22.98,3.19-3.14,6.23-3.12,9.48.07,7.72,7.6,15.38,15.26,22.95,23,1.14,1.17,1.74,2.88,2.74,4.62Zm-30.76,14.18c4.81-4.79,9.86-9.81,14.34-14.27-4.63-4.64-9.6-9.62-14.1-14.13-4.69,4.68-9.67,9.65-14.33,14.3,4.69,4.69,9.66,9.67,14.09,14.1Z"/>
  <path d="m167.66,173.62c.04,3.24-2.66,5.98-5.9,6.02-3.24.03-5.98-2.65-6.01-5.9-.03-3.25,2.64-5.98,5.89-6.01,3.25-.03,5.98,2.65,6.02,5.9Z"/>
  <path d="m161.67,281.41c.03,3.24-2.66,5.98-5.9,6.02-3.24.03-5.98-2.66-6.01-5.9-.03-3.25,2.64-5.98,5.9-6.01,3.25-.03,5.98,2.65,6.01,5.9Z"/>
  <path d="m65.71,323.36c-3.25-.1-5.87-2.9-5.77-6.14.1-3.26,2.89-5.88,6.13-5.77,3.25.1,5.88,2.9,5.78,6.13-.1,3.24-2.91,5.88-6.14,5.78Z"/>
</svg>