<?xml version="1.0" encoding="UTF-8"?>
<svg id="Layer_1" data-name="Layer 1" width="24" height="24" xmlns="http://www.w3.org/2000/svg" viewBox="0 0 383.4 382.92">
  <path d="m190.52,48.5c21.13.71,41.11,4.74,58.65,17.35,30.25,21.74,40.15,60.69,23.23,92.54-7.19,13.54-18.24,23.93-29.23,34.31-7.07,6.68-14.22,13.28-21.25,20-10,9.55-14.32,21.61-15.32,35.12-.2,2.74-.4,5.48-.72,8.2-.61,5.22-4.39,8.86-9.69,9.1-4.48.2-8.98.19-13.47.06-6.27-.18-10.36-4.43-10.43-10.81-.25-24.43,7.19-45.86,25.09-63.03,8.55-8.2,17.4-16.09,25.97-24.27,3.88-3.69,7.64-7.55,11.09-11.64,12.47-14.78,14.01-34.51,4.15-51.14-20.12-33.95-65.59-33.42-86.01-11.4-6.85,7.39-11.23,16.09-14.07,25.63-1.91,6.42-5.72,11.06-12.17,13.11-6.6,2.11-12.66.71-17.69-3.99-5.26-4.92-7.15-11.16-5.05-18.08,9.73-32.09,30.9-51.9,63.92-58.45,7.54-1.5,15.32-1.78,22.99-2.62Z"/>
  <path d="m209.64,314.86c-.04,10.74-8.7,19.45-19.45,19.56-10.76.11-19.72-8.84-19.74-19.71-.02-10.91,8.77-19.68,19.7-19.65,10.91.02,19.53,8.78,19.5,19.8Z"/>
</svg>