<?xml version="1.0" encoding="UTF-8"?>
<svg id="Layer_1" data-name="Layer 1" width="24" height="24"  xmlns="http://www.w3.org/2000/svg" viewBox="0 0 383.4 382.92">
  <path d="m383.4,204.37c-.73,5.41-1.32,10.85-2.2,16.23-9.23,56-37.54,99.8-84.58,131.41-23.72,15.94-49.94,26.25-78.3,29.38-78.89,8.69-141.54-19.64-186.89-84.86-17.66-25.4-27.3-54.16-30.42-84.89C-7.84,124.56,42.05,44.29,122.48,12.87c17.14-6.7,34.89-10.87,53.28-12.17,1.09-.08,2.16-.46,3.23-.7,8.49,0,16.97,0,25.46,0,4.54.58,9.09,1.09,13.61,1.75,37.41,5.47,70.64,20.25,99.11,45.17,35.34,30.94,56.79,69.68,64.03,116.16.82,5.26,1.46,10.55,2.19,15.82v25.45Zm-191.45,166.15c99.57-.81,178.76-80.51,178.55-179.26-.2-99.64-80.53-178.64-179.23-178.38C92.32,13.14,12.57,93.52,12.82,191.79c.25,98.72,80.94,179.23,179.13,178.72Z"/>
  <path d="m220.18,241.49c.76-16.94,1.48-33.88,2.33-50.81.12-2.41-.63-3.73-2.66-5.09-8.78-5.91-13.27-14.27-14.74-24.82-2.26-16.28,1.93-31.42,7.29-46.35,4.06-11.31,14.82-18.46,26.49-18.56,12.88-.12,23.42,6.54,28.09,18.96,4.64,12.35,8.22,25.04,7.83,38.53-.4,13.69-4.22,25.48-16.56,33.2-.91.57-1.4,2.51-1.35,3.78.52,13.83,1.2,27.65,1.82,41.48.88,19.93,1.9,39.85,2.54,59.79.35,10.74-7.13,19.23-17.86,21.14-10.19,1.82-20.91-4.18-24.19-13.89-.93-2.75-1.25-5.87-1.14-8.79.6-16.2,1.42-32.38,2.16-48.58-.01,0-.03,0-.04,0Zm13.08-3.77s.03,0,.04,0c-.81,17.56-1.66,35.12-2.39,52.69-.24,5.88,3.09,9.43,8.58,9.56,5.53.13,9.21-3.69,8.95-9.6-.79-17.81-1.69-35.62-2.52-53.43-.81-17.31-1.56-34.63-2.38-51.94-.18-3.81,1.34-6.43,4.81-8.06,1.79-.84,3.56-1.8,5.15-2.98,6.96-5.17,8.05-12.79,8.36-20.67.48-12.22-3.11-23.65-7.35-34.83-2.49-6.56-8.14-9.81-15.06-9.72-6.75.08-12.26,3.31-14.67,9.75-4.19,11.2-7.7,22.62-7.36,34.84.3,10.7,3.35,19.6,14.19,24.06,3.35,1.37,4.31,4.24,4.15,7.65-.84,17.56-1.66,35.13-2.49,52.69Z"/>
  <path d="m124.86,237.92c.86-17.93,1.77-35.86,2.48-53.8.06-1.6-.8-3.63-1.92-4.82-4.42-4.74-9.29-9.07-13.61-13.89-1.6-1.79-3-4.51-3.03-6.82-.24-18.46-.12-36.92-.15-55.37,0-3.19,1.08-6.07,4.14-6.76,2.08-.47,5.09.19,6.69,1.52,1.38,1.15,1.86,3.98,1.88,6.07.14,16.21.17,32.43,0,48.64-.03,3.17.91,5.34,3.17,7.45,4.29,3.99,8.25,8.33,12.51,12.35,2.76,2.6,3.85,5.54,3.65,9.33-1.9,35.85-3.71,71.71-5.54,107.57-.27,5.3,1.99,8.99,6.25,10.16,4.11,1.13,8.27-.53,10.02-4.31.7-1.52,1.09-3.36,1.01-5.03-.88-19.8-1.86-39.6-2.86-59.4-.84-16.68-1.88-33.36-2.45-50.06-.09-2.52,1.35-5.6,3.07-7.56,4.34-4.97,9.34-9.35,13.83-14.19,1.19-1.29,2.09-3.39,2.11-5.13.16-16.46.08-32.93.12-49.39,0-1.6-.04-3.35.56-4.76,1.26-2.93,3.75-4.39,6.97-3.74,3.16.64,4.98,2.82,5.16,6.04.18,3.11.06,6.23.06,9.35,0,15.34-.08,30.68.06,46.02.03,3.53-1.08,6.2-3.59,8.6-4.51,4.31-8.96,8.69-13.2,13.25-1.12,1.2-2.03,3.21-1.96,4.81,1.04,23.66,2.26,47.32,3.44,70.98.58,11.58,1.32,23.16,1.68,34.74.42,13.22-8.93,23.08-21.55,23.12-12.58.04-22.08-9.79-21.61-23.06.61-17.32,1.7-34.62,2.58-51.92.01,0,.02,0,.04,0Z"/>
  <path d="m319.68,190.2c-.71,36.07-12.74,65.92-36.68,90.89-3.18,3.31-7.14,3.76-9.91,1.18-2.81-2.62-2.82-6.42.48-9.91,9.04-9.6,16.68-20.12,22.24-32.11,9.02-19.45,12.28-39.83,10.01-61.13-2.36-22.13-10.64-41.8-24.42-59.23-3.97-5.02-4.15-8.76-.74-11.43,3.52-2.76,6.97-1.5,11.11,3.73,14.97,18.92,23.89,40.36,26.83,64.28.62,5.06.81,10.18,1.08,13.74Z"/>
  <path d="m63.81,189.65c-.39-22.98,7.53-49.08,24.08-72.54,2.5-3.54,6.37-4.32,9.42-2.12,3,2.15,3.56,5.88.97,9.62-8.52,12.31-15.09,25.54-18.25,40.2-8.44,39.17.22,74.03,26.9,104.19,1.07,1.21,2.22,2.37,3.22,3.64,2.73,3.47,2.65,6.8-.16,9.35-2.72,2.47-6.57,2.43-9.3-.74-5.28-6.13-10.71-12.21-15.24-18.88-13.7-20.18-20.62-42.66-21.65-72.72Z"/>
  <path d="m194.09,63.16c9.26,1.42,18.14,2.58,26.94,4.2,4.73.87,6.76,4.66,5.24,8.49-1.37,3.43-4.25,4.44-8.63,3.91-9.25-1.12-18.51-2.37-27.81-2.71-12.17-.45-24.01,2.04-35.53,6-1.06.36-2.13.7-3.21.98-3.85,1.02-6.92-.44-8.15-3.84-1.21-3.32.22-6.93,3.9-8.13,6.61-2.15,13.27-4.37,20.09-5.58,9.05-1.61,18.26-2.27,27.15-3.32Z"/>
  <path d="m140.73,127.77c0,8.11.06,16.21-.02,24.32-.05,4.73-2.58,7.59-6.5,7.5-3.25-.07-5.42-1.69-6.11-4.95-.25-1.21-.33-2.47-.33-3.71-.02-15.46-.02-30.93,0-46.39,0-1.12.1-2.24.28-3.34.55-3.26,2.58-5.09,5.82-5.29,3.28-.2,5.47,1.5,6.38,4.62.37,1.29.45,2.7.46,4.05.04,7.73.02,15.46.02,23.2Z"/>
  <path d="m159.86,128.01c0,7.61.05,15.22-.04,22.82-.02,1.83-.16,3.83-.91,5.44-1.4,2.98-4.17,3.9-7.25,3.07-3.55-.95-4.75-3.78-4.76-7.17-.04-10.97-.02-21.95-.02-32.92,0-5.61-.13-11.23.08-16.83.15-3.94,2.85-6.52,6.31-6.57,3.58-.06,6,2.29,6.46,6.35.13,1.11.11,2.24.12,3.36,0,7.48,0,14.96,0,22.45Z"/>
  <path d="m191.72,319.67c-4.6-.3-9.2-.49-13.78-.92-4.49-.42-7.34-3.56-6.87-7.25.49-3.85,3.64-5.73,8.29-5.64,8.32.17,16.66.15,24.98-.04,4.56-.1,7.74,1.92,8.17,5.79.41,3.7-2.43,6.72-7,7.14-4.58.42-9.19.62-13.79.92Z"/>
</svg>