<?xml version="1.0" encoding="UTF-8"?>
<svg id="Layer_1" data-name="Layer 1" width="24" height="24" xmlns="http://www.w3.org/2000/svg" viewBox="0 0 318.12 384">
  <path d="m99.02,384c-11.31-6.24-23.4-11.4-33.8-18.91C27.48,337.82,5.95,300.69.64,254.32.32,251.47.02,248.6,0,245.73c-.05-7.41,5.48-13.03,12.93-13.21,4.09-.1,8.19-.02,12.36-.02-4.36-15.17-4.4-16.89-.57-26.2-.85-.68-1.78-1.46-2.74-2.18-23.23-17.55-28.37-49.9-11.67-73.55,16.71-23.68,48.91-29.72,73.21-13.8,1.1.72,2.84,1.45,3.9,1.08,16.93-5.93,31.64-1.19,45.26,9.11.8.6,1.55,1.26,2.33,1.89.09.08.23.1.79.35,4-6.11,8.91-11.48,16.35-14.03-2.77-11.14-3.14-22.15-.65-33.18,2.46-10.93,7.35-20.66,14.64-29.16,4.32-5.03,9.97-5.37,14.69-.71,8.45,8.33,16.75,16.81,25.28,25.4,2.1-1.76,3.9-3.44,5.88-4.89,17.61-12.85,36.38-14.66,56.2-5.72,3.9,1.76,5.2,4.55,4.01,7.72-1.27,3.39-4.68,4.38-8.83,2.42-12.83-6.04-25.63-5.99-38.21.51-3.82,1.97-7.17,4.84-10.86,7.38,2.24,2.12,4,3.8,6.04,5.73,9.87-9.11,21.79-12.54,35.16-8.08,13.28,4.43,20.61,14.29,23.21,27.87h7.8c-.4-6.1-2.46-11.34-5.11-16.44-1.98-3.81-.64-7.56,2.94-8.52,3.07-.82,5.33.35,6.87,3.11,3.77,6.75,5.99,13.94,6.73,21.64.13,1.39.84,3.4,1.89,3.93,13.57,6.96,19.57,22.63,16.29,38.54-2,9.67-6.64,17.96-13,25.31,2.68,2.25,5.43,4.24,7.78,6.61,9.51,9.58,9.61,22.7.37,32.53-5.37,5.71-12.12,9.11-19.47,11.5-1.41.46-2.83.85-4.69,2.23.9.54,1.78,1.47,2.72,1.53,2.86.2,5.75.06,8.62.08,8.76.08,14.41,5.89,13.79,14.55-3.65,50.96-26.5,91.23-68.37,120.33-9.53,6.62-20.53,11.13-30.85,16.61h-114.01Zm199.63-116.25c.78-6.57,1.63-12.63,2.18-18.71.47-5.27.32-5.29-5.14-5.29-93,0-186.01,0-279.01,0-.75,0-1.5.06-2.25,0-2.47-.21-3.46.92-3.17,3.33.66,5.45,1.54,10.89,1.88,16.36.24,3.88,2.08,4.4,5.5,4.39,65.25-.1,130.51-.07,195.76-.07,1.25,0,2.5-.06,3.75.03,3.49.24,5.73,2.54,5.66,5.72-.06,3.04-2.23,5.21-5.53,5.47-1.12.09-2.25.03-3.37.03-64.38,0-128.76,0-193.13,0h-4.82c.52,1.85.85,3.29,1.33,4.68,14.16,40.59,40.77,69.84,80,87.5,2.19.99,4.78,1.5,7.19,1.51,33.88.1,67.75.09,101.63,0,2.17,0,4.51-.44,6.49-1.31,39.32-17.5,65.97-46.71,80.3-87.23.56-1.59.91-3.25,1.44-5.15h-4.5c-14.5,0-29,0-43.5,0-5.02,0-7.62-1.98-7.57-5.7.05-3.68,2.63-5.54,7.74-5.54,12.88,0,25.75,0,38.63,0h12.53Zm-22.7-35.49c-.53-1.13-.89-1.92-1.27-2.71-2.54-5.31-.79-8.76,4.93-9.71,1.6-.26,3.3-.29,4.77-.89,5.27-2.16,10.94-3.82,15.58-6.95,9.35-6.3,9.15-15.25.05-22.01-2.18-1.62-4.65-2.92-7.13-4.06-6.69-3.09-7.35-6.93-1.92-11.78,6.88-6.15,11.78-13.55,13.99-22.56,4.61-18.81-7.93-32.49-27-29.36-10.04,1.65-18.02,7.03-24.7,14.49-4.71,5.25-8.36,4.49-11.68-1.73-2.24-4.21-5.08-8.32-8.46-11.65-3.78-3.73-8.81-3.68-13.01-.33-2.67,2.13-5.36,4.79-6.76,7.81-2.4,5.14-4.25,10.64-5.49,16.18-1.51,6.75-4.27,8.5-10.45,5.6-1.91-.89-3.92-1.64-5.97-2.13-6.79-1.63-11.89,1.16-14.02,7.84-2.47,7.77-1.15,15.36,1.6,23.58.85-1.63,1.27-2.64,1.86-3.53,3.22-4.89,6.15-10.01,9.82-14.54,3.62-4.46,9.28-4.48,13.66-.75,1.23,1.05,2.34,2.25,3.49,3.4,7.5,7.5,14.99,15.01,22.64,22.67,9.93-9.94,19.63-19.66,29.34-29.36,1.06-1.06,2.06-2.22,3.27-3.07,2.46-1.73,5.01-1.59,7.15.52,2.15,2.11,2.31,4.65.64,7.15-.68,1.02-1.65,1.87-2.53,2.75-9.91,9.88-19.82,19.75-29.71,29.59,5.49,7.46,34.41,35.25,37.29,35.56Zm-106.23-42.07c-1.36-4.7-2.77-8.46-3.51-12.35-2.35-12.43-2.43-24.44,7.71-34.12.47-.45.73-1.63.49-2.24-1.94-5.2-4.51-10.05-9.09-13.46-4.67-3.49-9.83-3.67-13.98.44-3.2,3.17-5.86,7.11-7.95,11.13-3.33,6.41-7.04,7.16-11.88,1.75-6.51-7.28-14.37-12.33-24.04-14.28-17.19-3.45-29.93,7.75-28.18,24.77,1.15,11.17,6.73,19.93,14.86,27.29,5.07,4.6,4.32,8.3-1.68,11.46-4.12,2.17-8.14,4.87-11.48,8.09-3.73,3.6-3.93,8.19-1.44,12.4,3.19,5.41,8.29,8.28,14.22,10.56,3.04-8.76,7.52-16.15,13.89-22.36,6.43-6.26,14.1-10.43,23.04-13.38-5.34-5.3-10.24-10.1-15.08-14.97-3.07-3.09-3.44-6.45-1.1-8.88,2.43-2.52,5.93-2.14,9.16,1.06,6.29,6.26,12.53,12.57,18.84,18.79.93.92,2.16,2.13,3.29,2.17,8.2.3,15.96,2.24,23.9,6.1Zm3.73-128.57c-10.07,12.71-13.81,27.34-11.87,43.57.66,5.55,1.81,10.37,8.24,12.57,3.04,1.04,5.75,4.03,7.79,6.75,2.73,3.65,4.64,7.91,6.97,11.87.51.87,1.21,2.15,1.98,2.27,3.62.58,7.3.82,10.14,1.11,3.12-6.29,5.72-12.5,9.17-18.2,3.63-5.99,9.25-9.9,15.87-11.69-16.06-16.06-32-31.98-48.28-48.26Zm-105.67,97.49c-6.39-.39-12.35,3.76-14.47,11.01-2.03,6.94-.76,13.59,2.21,20.02,2.84,6.15,1.61,8.51-4.75,10.37-3.31.97-6.68,2.25-9.56,4.12-9.4,6.12-10.73,16.57-3.6,25.19,1.53,1.85,3.15,2.76,5.71,2.74,14-.14,28-.07,42-.07h3.12c-23.87-10.45-30.68-33.93-7.53-49.13-4.32-7.99-8.61-15.91-13.13-24.27Zm8.42-33.44c-18.62-12.67-45.62-6.41-57.93,13.26-12.47,19.93-6.14,46.93,13.72,58.26,2.36-1.54,4.74-3.1,7.18-4.71-20.85-11.7-22.52-32.88-15.87-46.13,3.79-7.55,9.51-13.15,17.28-16.4,10.66-4.47,21.14-3.44,31.14,2.01,1.57-2.22,2.94-4.14,4.46-6.28Zm34.65,106.66c5.95-18.98,17.51-28.86,33.83-28.91,7.31-.02,14.04,2.08,20.01,6.37,7.76,5.58,12.3,13.23,14.08,22.43h7.87c-2.77-21.47-21.32-37.37-42.59-36.75-21.2.61-39.17,16.78-40.79,36.86h7.59Zm100.49.05c-10.58-15.82-10.74-31.34-1.1-46.35-4.37-4.35-8.57-8.54-12.85-12.79-6.55,8-10.41,17.57-11.76,28.19-.09.67.05,1.59.45,2.08,6.88,8.41,10.78,18.09,12.14,28.87h13.12Zm7.51-38.24c-8.47,11.8-3.89,31.09,8.97,37.65.94.48,2.13.68,3.2.69,7.24.06,14.48.07,21.72,0,1.2-.01,2.4-.52,3.63-.81-12.69-12.69-25.02-25.02-37.52-37.53Zm32.74-72.17c4.73-2.59,9.66-5.2,14.48-8.01.68-.4,1.21-1.76,1.13-2.62-.67-7.93-7.41-15.72-15.67-18.31-8.5-2.66-17.79-.19-22.94,5.89,7.74,7.76,15.46,15.5,23,23.05Zm-184.06,25.52c.9-4.34.89-4.36-2.42-6.21-7.95-4.44-18.17-3.59-25.35,2.12-7.26,5.78-10.37,15.36-7.78,24.2,1.5,5.11,4.27,9.29,9.09,12.53-.56-21.89,12.23-31.62,26.46-32.63Zm99.47,84.88c-2.47-10.81-12.4-18.31-23.12-17.71-10.44.59-19.81,8.48-20.88,17.71h44Z"/>
  <path d="m132.77,0c2.42,2.08,5.29,3.82,7.2,6.29,18.57,24.16,16.23,58.88-5.26,80.51-21.49,21.64-56.13,24.13-80.52,5.8-1-.75-1.98-1.53-2.91-2.37-4.56-4.11-4.97-9.8-.63-14.2,12.28-12.46,24.69-24.8,37.1-37.14,2.75-2.73,5.95-2.86,8.32-.63,2.44,2.3,2.38,5.77-.44,8.61-10.83,10.91-21.71,21.77-32.61,32.61-.97.96-2.18,1.67-3.3,2.52,14.96,13.98,45.2,17.43,66.07-2.2,18.37-17.29,20.74-48.95,4.43-67.4-2.71,2.69-5.4,5.37-8.11,8.04-2.49,2.46-4.88,5.03-7.51,7.33-2.41,2.1-5.12,1.99-7.42-.24-2.17-2.1-2.67-5.07-.62-7.09C113.61,13.44,121,6.78,128.27,0c1.5,0,3,0,4.5,0Z"/>
  <path d="m225.78,0c1.52.48,3.05.95,4.56,1.45,16.12,5.41,25.8,16.41,28.66,33.21.87,5.14-1.59,9.27-6.6,10.69-12.35,3.49-24.72,6.91-37.18,9.97-7.21,1.77-13.01-4.21-11.21-11.47,3.06-12.33,6.51-24.57,9.77-36.85C214.75,3.41,217.47,1.55,220.53,0c1.75,0,3.5,0,5.25,0Zm-10.16,43.67c11.22-3.03,21.6-5.82,31.9-8.6-1.09-10.54-12.3-22.73-23.44-23.02-2.74,10.24-5.5,20.54-8.47,31.62Z"/>
  <path d="m121.53,50.31c-1.37,0-2.74.09-4.1-.02-3.19-.24-5.45-2.53-5.49-5.47-.04-2.88,2.19-5.39,5.36-5.65,2.59-.21,5.22-.19,7.82-.03,3.48.22,5.64,2.55,5.58,5.73-.06,3.21-2.22,5.25-5.82,5.44-1.11.06-2.23,0-3.35,0,0,0,0-.01,0-.02Z"/>
  <path d="m85.42,73.68c0-1.49-.15-2.99.03-4.46.34-2.82,2.04-4.49,4.87-4.76,2.98-.28,5.39,1.05,5.81,4,.48,3.39.47,6.93.07,10.34-.35,2.95-2.7,4.5-5.63,4.3-2.89-.2-4.82-1.91-5.12-4.96-.15-1.47-.03-2.97-.03-4.46,0,0,0,0,.01,0Z"/>
  <path d="m109.02,56.76c1.77.81,3.08,1.11,3.96,1.89,2.15,1.9,4.26,3.88,6.09,6.09,2.02,2.44,1.91,5.18-.34,7.44-2.27,2.26-5.03,2.31-7.45.33-2.21-1.81-4.48-3.78-5.98-6.15-.97-1.53-1.33-4.2-.67-5.83.65-1.62,2.93-2.59,4.4-3.76Z"/>
  <path d="m190.44,129.27c-4.47.04-7.53-4.65-5.07-8.06,2.29-3.16,5.21-6.06,8.4-8.28,1.29-.89,4.56-.32,5.99.8,1.28,1,2.35,4.46,1.63,5.42-2.69,3.59-6.14,6.62-9.37,9.79-.37.36-1.19.26-1.58.33Z"/>
  <path d="m184.14,91.41c1.61,0,3.24-.14,4.83.03,2.84.3,4.52,2.02,4.81,4.82.31,2.97-1.02,5.45-3.96,5.84-3.76.49-7.67.48-11.44.04-2.94-.34-4.43-2.8-4.16-5.72.27-2.88,2.04-4.77,5.08-5.01,1.6-.13,3.22-.02,4.84-.02,0,0,0,.01,0,.02Z"/>
</svg>