<?xml version="1.0" encoding="UTF-8"?>
<svg id="Layer_1" data-name="Layer 1" width="24" height="24" xmlns="http://www.w3.org/2000/svg" viewBox="0 0 407.16 408.85">
  <path d="m9.53,408.85c-2.64-2.1-6.08-3.69-7.77-6.38-4.89-7.8,1.1-17.54,10.64-17.6,19.83-.13,39.65-.04,59.48-.05,1.46,0,2.92,0,5.7,0-2.69-1.82-4.44-3-6.19-4.19-32.97-22.31-55.57-52.18-66.2-90.77C1.56,276.71.08,263.25.04,249.63c-.06-19.82-.03-39.65-.01-59.47,0-9.88,4.56-14.48,14.34-14.48,101,0,202,0,302.99,0,9.67,0,14.16,4.47,14.22,14.1.01,2.09,0,4.19,0,6.74,4.65,0,8.86-.03,13.08,0,30.82.21,55.74,20.55,61.42,50.12,6.89,35.89-20.06,70.35-56.55,72.06-10.23.48-20.49.14-30.73.42-1.53.04-3.76,1.01-4.42,2.23-13.82,25.82-33.3,46.28-58.03,61.83-.41.26-.73.64-1.84,1.64,2.22,0,3.61,0,5,0,19.83,0,39.65-.05,59.48.03,8.66.04,14.36,7.32,12.18,15.22-1.25,4.51-4.72,6.81-8.55,8.78H9.53Zm14.87-208.94c-.1,1.22-.27,2.25-.27,3.28-.02,9.05-.19,18.1.03,27.15.31,12.89.02,25.87,1.57,38.62,3.27,26.81,15,49.98,33.33,69.7,23.03,24.78,51.55,39.3,84.92,44.37,22.04,3.35,43.83,1.8,65.11-4.72,29.75-9.11,54.35-25.91,72.99-50.95,14.11-18.96,23.15-40.23,24.55-63.89,1.21-20.56.65-41.23.84-61.85,0-.6-.3-1.2-.43-1.71H24.39Zm300.7,94.59c9.13,0,17.41.6,25.56-.12,18.1-1.61,33.25-18.9,32.29-36.96-1.49-28.07-24.63-40.63-51.35-36.1-.21,24.46,1.63,49.16-6.5,73.18Z"/>
  <path d="m116.56,41.65c-.35,13.94-6.09,24.51-15.42,33.41-3.46,3.3-7.09,6.46-10.21,10.06-5.13,5.91-5.93,12.88-2.41,19.69,2.53,4.88,6.02,9.35,9.57,13.6,6.21,7.44,3.2,18.3-6.17,19.91-3.05.53-7.47-.2-9.62-2.15-13.61-12.39-22.06-27.28-19.24-46.5,1.55-10.57,7.32-18.94,14.95-26.15,3.37-3.19,6.91-6.27,9.92-9.78,5.08-5.92,5.89-12.85,2.4-19.7-2.32-4.55-5.46-8.79-8.78-12.7-5.08-5.99-5.53-12.93-.54-17.83,5.02-4.93,12.23-4.64,17.75.88,10.51,10.53,17.11,22.92,17.8,37.27Z"/>
  <path d="m192.95,42.63c-.14,12.83-6.06,23.59-15.6,32.68-3.46,3.3-7.13,6.43-10.19,10.07-4.69,5.55-5.81,12.17-2.51,18.63,2.63,5.13,6.18,9.86,9.85,14.35,6.17,7.53,3.33,18.28-6.01,19.95-3.14.56-7.66-.3-9.95-2.32-11.69-10.29-19.19-23.06-19.61-39.08-.35-13.56,5.98-24.21,15.44-33.33,3.35-3.23,6.91-6.27,9.96-9.76,5.02-5.77,5.92-12.6,2.63-19.35-2.29-4.7-5.49-9.08-8.88-13.1-5.05-5.99-5.57-12.94-.66-17.83,5.09-5.06,12.21-4.64,18.03,1.08,10.72,10.53,17.27,24.53,17.52,38.01Z"/>
  <path d="m269.32,40.68c-.03,14.95-6.09,25.64-15.62,34.7-3.18,3.02-6.58,5.85-9.46,9.12-5.61,6.36-6.47,13.75-2.51,21.1,2.55,4.73,6.11,8.97,9.53,13.16,5.94,7.28,2.7,18.03-6.48,19.59-3.06.52-7.42-.26-9.62-2.21-12.43-11.03-20.29-24.56-19.72-41.78.42-12.58,6.61-22.45,15.47-30.9,3.27-3.11,6.73-6.06,9.69-9.46,5.35-6.15,6.16-13.28,2.46-20.41-2.29-4.42-5.38-8.53-8.63-12.33-5.14-6.02-5.54-12.85-.48-17.8,5.03-4.93,12.18-4.6,17.72.96,10.38,10.43,17.08,22.61,17.66,36.25Z"/>
</svg>