<?xml version="1.0" encoding="UTF-8"?>
<svg id="Layer_1" data-name="Layer 1" width="24" height="24" xmlns="http://www.w3.org/2000/svg" viewBox="0 0 286.73 383.29">
  <path d="m141.26,383.29c-7.51-1-15.07-1.76-22.52-3.09-4-.71-7.97-2.06-11.71-3.7-10.03-4.38-13.86-11.88-10.87-22.41,1.29-4.53,4.28-8.57,6.45-12.86.75-1.49,1.77-3.01,1.95-4.59,3.33-28.54,4.35-57.18,3.01-85.89-.89-19.12-4.61-37.82-8.61-56.47-8.5-39.59-19.31-78.58-30.88-117.37-2.29-7.67-.24-10.44,7.83-10.44,53.76,0,107.51,0,161.27,0,7.82,0,9.9,2.81,7.71,10.2-12.41,41.91-23.87,84.07-32.97,126.86-6.67,31.36-8.19,62.98-6.51,94.85.67,12.69,1.83,25.36,2.97,38.02.16,1.79,1.19,3.73,2.35,5.17,3.71,4.6,6.04,9.72,6.75,15.56,1.04,8.55-1.72,15-9.7,18.33-7.14,2.98-14.93,4.51-22.53,6.24-4.33.99-8.86,1.09-13.29,1.59h-30.69ZM91.68,114.81c3.54,13.58,7.07,26.41,10.2,39.34,8.37,34.51,17.05,68.95,18.05,104.76.77,27.49-.44,54.85-3.87,82.12-.3,2.38-1.99,4.63-3.2,6.84-1.78,3.24-4.04,6.25-5.48,9.62-1.36,3.17.01,6.01,3.16,7.43,3.04,1.37,6.21,2.67,9.46,3.35,17.23,3.59,34.71,3.7,52.14,2.49,8.89-.62,17.83-2.04,26.47-4.21,7.75-1.94,9.13-6.99,5.18-14.02-1.33-2.37-2.74-3.15-5.69-2.42-23.34,5.86-46.98,4.86-70.64,2.67-1.19-.11-2.5-.51-3.46-1.19-2.46-1.73-3.03-4.34-1.96-6.99,1.23-3.06,3.84-3.92,7.05-3.62,16.91,1.61,33.85,2.21,50.78.32,5.5-.61,10.94-1.82,16.13-2.7-.95-14.29-2.15-27.83-2.68-41.39-1.03-26.32-.88-52.6,3.71-78.68,6.87-39.06,17.01-77.33,27.69-115.48,2.26-8.08,4.62-16.14,6.99-24.4h-12.34c-.32,1.13-.64,2.06-.86,3.03-16.79,73.96-33.57,147.93-50.35,221.89-1.85,8.14-3.65,16.28-5.55,24.41-1.06,4.55-3.94,6.69-7.58,5.83-3.44-.81-4.98-3.91-4.12-8.31.07-.37.11-.74.19-1.11,16.31-71.77,32.63-143.54,48.94-215.31,2.28-10.05,4.54-20.11,6.85-30.34h-125.75c2.06,7.04,4.2,13.67,5.87,20.42.76,3.09,2.18,3.76,5.15,3.75,29.44-.11,58.87-.07,88.31-.05,1.61,0,3.29.02,4.81.46,2.88.83,4.21,3.01,4.02,5.97-.19,2.98-1.87,4.85-4.81,5.35-1.46.25-2.98.17-4.48.18-27.81,0-55.63,0-83.44,0-1.47,0-2.95,0-4.9,0Z"/>
  <path d="m0,72.62C.4,37.01,26.49,6.36,61.45.89c36.01-5.63,70.52,15.93,81.08,50.66,1.46,4.79.18,8.13-3.49,9.18-3.76,1.07-6.46-.85-8.04-5.73-8.8-27.14-32.84-44.05-61.03-42.93-30.09,1.19-56.03,26.57-57.46,56.21-1.56,32.47,20.36,59.97,51.31,64.31,2.83.4,5.7.54,8.56.72,4,.26,6.7,2.73,6.61,6.15-.1,3.47-2.82,5.76-6.89,5.8-32.72.37-63.35-24.56-69.99-57.13-1.04-5.1-1.42-10.34-2.11-15.51Z"/>
  <path d="m233.98,13.92c-2.02,8.87-3.96,17.34-5.89,25.81-1.11,4.86-2.14,9.73-3.31,14.58-1.06,4.39-3.7,6.35-7.37,5.64-3.51-.68-5.28-3.76-4.3-8.16,3.43-15.44,6.94-30.87,10.5-46.28,1.08-4.67,4.08-6.34,8.67-4.83,16.44,5.41,32.87,10.88,49.27,16.4,4.28,1.44,5.95,4.35,4.85,7.91-1.05,3.39-4.41,4.81-8.58,3.43-13.6-4.49-27.17-9.05-40.76-13.57-.82-.27-1.66-.5-3.09-.92Z"/>
  <path d="m78.41,40.19c0,3.74.07,7.49-.02,11.23-.09,3.94-2.34,6.34-5.82,6.39-3.49.06-6.02-2.31-6.08-6.16-.12-7.73-.13-15.47.01-23.2.07-3.8,2.71-6.15,6.21-6.02,3.31.12,5.57,2.47,5.67,6.16.11,3.86.02,7.73.03,11.6Z"/>
  <path d="m39.73,78.65c-3.73,0-7.46.08-11.19-.02-3.83-.11-6.29-2.5-6.31-5.91-.02-3.41,2.44-5.93,6.25-5.98,7.58-.11,15.16-.1,22.74,0,3.86.05,6.26,2.46,6.27,5.93.02,3.47-2.37,5.86-6.21,5.97-3.85.11-7.71.02-11.56.02Z"/>
  <path d="m110.47,41.2c-1.23,2.03-1.9,3.68-3.04,4.89-3.05,3.28-6.26,6.43-9.49,9.54-2.94,2.84-6.49,2.99-8.96.54-2.49-2.47-2.37-6,.47-8.94,3.29-3.41,6.64-6.76,10.06-10.03,1.97-1.88,4.53-2.64,6.82-1.02,1.66,1.17,2.7,3.22,4.12,5.02Z"/>
  <path d="m41.01,34.85c2.06,1.21,3.73,1.84,4.95,2.96,3.29,3.04,6.44,6.24,9.54,9.48,2.77,2.89,2.84,6.55.34,8.96-2.39,2.3-5.94,2.23-8.69-.41-3.42-3.27-7.02-6.44-9.89-10.15-1.26-1.63-1.7-4.73-1.09-6.74.5-1.66,3.08-2.69,4.85-4.09Z"/>
  <path d="m51.03,88.3c1.52,1.2,3.82,2.15,4.44,3.75.69,1.78.6,4.77-.5,6.15-2.99,3.77-6.55,7.13-10.16,10.34-2.45,2.18-5.38,1.91-7.74-.4-2.35-2.31-2.72-5.25-.57-7.72,3.17-3.64,6.7-6.99,10.24-10.29.91-.85,2.42-1.07,4.29-1.84Z"/>
</svg>