<?xml version="1.0" encoding="UTF-8"?>
<svg id="Layer_1" data-name="Layer 1" width="24" height="24" xmlns="http://www.w3.org/2000/svg" viewBox="0 0 383.4 382.92">
  <path d="m307.7,340.61c0-13.95,0-27.3,0-40.64,0-14.23-.01-28.45,0-42.68,0-4.21,2.08-6.71,5.38-6.59,3.14.12,5.04,2.53,5.04,6.58.01,26.96,0,53.91,0,80.87v4.93c1.48.07,2.79.18,4.1.19,13.97.01,27.95,0,41.92.02,1.37,0,2.75-.01,4.11.17,2.74.36,4.63,2.22,4.29,4.73-.24,1.85-1.91,3.79-3.46,5.07-.95.79-2.85.56-4.33.56-19.46.03-38.94.39-58.39-.09-16.45-.41-32.54,2.13-48.7,4.29-17.52,2.34-35.04,4.76-52.56,7.14-17.64,2.4-35.29,4.79-52.94,7.18-.99.13-1.98.28-2.97.34-4.95.3-6.91-1.48-6.95-6.37-.03-3.97,0-7.95,0-12.46h-4.57c-39.67,0-79.35,0-119.02-.02-1.6,0-3.65.21-4.68-.64-1.53-1.27-3.32-3.5-3.16-5.14.16-1.64,2.39-3.34,4.08-4.47.97-.65,2.67-.28,4.04-.28,13.97-.01,27.95,0,41.92,0h4.55v-5.52c0-100.34,0-200.67,0-301.01,0-1.25-.04-2.5.02-3.74.21-4.59,1.9-6.25,6.5-6.26,21.96-.02,43.92,0,65.88,0,1.35,0,2.7,0,4.46,0,0-3.51-.02-6.71,0-9.91.04-5.03,1.84-6.96,6.76-6.54,11.55.99,23.08,2.17,34.61,3.33,15.99,1.61,31.98,3.27,47.97,4.9,16.36,1.67,32.72,3.33,49.09,5,10.54,1.07,21.08,2.13,31.61,3.22,4.15.43,5.81,2.14,5.81,6.23.03,27.58.03,55.16,0,82.74,0,3.82-1.93,6.03-5.08,6.1-3.32.08-5.32-2.17-5.32-6.2-.02-24.83-.01-49.67-.01-74.5,0-1.34,0-2.68,0-4.32-51.76-5.23-103.15-10.43-154.8-15.66v340.51c51.67-7.01,103.1-14,154.8-21.02ZM142.05,67.57h-36.52v275.48h36.52V67.57Zm-47.32,275.53v-5.61c0-89.95,0-179.9,0-269.85,0-1.37-.03-2.75.01-4.12.14-4.89,1.95-6.68,6.92-6.7,12.1-.03,24.2-.01,36.3-.01,1.33,0,2.65,0,4.09,0v-19.37h-65.68v305.65h18.37Z"/>
  <path d="m202.12,191.58c-.01,10.43-8.31,18.65-18.78,18.6-10.41-.05-18.66-8.39-18.63-18.81.04-10.38,8.38-18.62,18.83-18.59,10.43.03,18.59,8.29,18.58,18.81Zm-10.44.03c.06-4.61-3.62-8.38-8.21-8.41-4.55-.03-8.36,3.78-8.33,8.32.03,4.4,3.65,8.09,8.06,8.21,4.59.13,8.42-3.55,8.47-8.13Z"/>
  <path d="m307.71,211.68c0-2.49-.1-4.99.02-7.47.15-3.05,2.46-5.33,5.26-5.14,3.01.21,4.96,1.95,5.06,4.96.18,5.35.2,10.72-.02,16.06-.13,3.05-2.29,4.81-5.23,4.75-2.92-.07-4.9-1.84-5.06-4.94-.14-2.73-.03-5.48-.04-8.22Z"/>
  <path d="m307.71,160.37c0-2.49-.1-4.99.03-7.48.16-3.16,2.35-5.28,5.26-5.11,3.04.18,4.96,1.89,5.06,4.94.17,5.11.15,10.23.01,15.34-.08,3.06-2.51,5.27-5.28,5.21-2.77-.06-4.94-2.31-5.07-5.42-.1-2.49-.02-4.99-.02-7.48Z"/>
</svg>