<?xml version="1.0" encoding="UTF-8"?>
<svg id="Layer_1" data-name="Layer 1" width="24" height="24" xmlns="http://www.w3.org/2000/svg" viewBox="0 0 361.48 318.18">
  <path d="m161.99,66.04c27.25-32.48,80.94-31.19,107.8-.16,1.05-1,2.12-1.97,3.14-2.99,19.19-19.18,38.37-38.37,57.55-57.55,5.08-5.08,11.17-6.49,17.92-4.42,6.67,2.05,11.35,6.36,12.72,13.43,1.29,6.65-.98,12.25-5.73,16.99-14.79,14.74-29.54,29.52-44.3,44.28-7.43,7.43-14.92,14.79-22.2,22.35-1.06,1.11-1.61,3.18-1.58,4.79.12,6.84.55,13.67.9,21.11,29.62,12.11,46.17,34.65,48.15,67.32,3.19,1.21,6.53,1.98,9.33,3.65,5.41,3.22,8.14,8.3,8.37,14.63.06,1.75.1,3.5.01,5.25-.17,3.42.17,6.45,2.76,9.27,1.65,1.8,2.86,4.68,2.94,7.12.29,8.73.91,17.6-.25,26.2-2.4,17.76-17.3,30.23-35.29,30.75-2.11.06-4.22,0-6.5,0-.51,1.78-.92,3.45-1.46,5.08-4.91,14.95-18.56,24.79-34.77,24.84-25.75.07-51.51.02-77.26.02-40.63,0-81.26-.39-121.89.16-20.64.28-35.86-11.49-39.7-29.23-6.06-1.02-12.1-1.4-17.73-3.12C9.8,281.19.23,267.86.04,252.04c-.07-5.88-.02-11.75,0-17.63.01-4.54,1.52-8.51,4.33-12.1.9-1.16,1.36-2.8,1.6-4.29.27-1.71.06-3.49.06-5.24,0-12.57,5.37-18.98,17.28-21,1.23-6.71,2.05-13.41,3.72-19.88,2.75-10.71,8.23-20.08,15.72-28.19,1.8-1.95,2.35-3.52,1.65-6.23-13.07-50.94,30.31-93.67,77.2-89.35,13.38,1.23,25.36,6.32,36.02,14.49,1.47,1.13,2.93,2.28,4.38,3.42Zm18.24,161.94c-53.36,0-106.72,0-160.07,0-6.16,0-8.11,1.93-8.14,7.99-.02,4.37,0,8.75,0,13.12,0,17.2,9.72,26.9,26.96,26.9,94.1,0,188.19,0,282.29,0,1.25,0,2.5.02,3.75-.04,12.82-.62,22.78-10.78,23.03-23.57.1-5.12.03-10.25.03-15.37,0-7.51-1.5-9.04-8.9-9.04-52.98,0-105.97,0-158.95,0Zm-71.27-75.28c9.87,3.56,13.71,11.63,15.61,21.12.52,2.57.65,5.31,1.67,7.66,1.3,3.01,3,6,5.18,8.41.89.99,4.04,1.23,5.24.43,8.78-5.85,16.08-13.07,19.43-23.48,2.32-7.22,7.34-11.55,14.68-12.88,7.09-1.28,12.64,1.79,17.1,7.12,4.61,5.5,6.85,12.06,8.62,18.9,1.28,4.93,2.67,9.9,4.74,14.53,2.38,5.31,9.09,7.92,14.59,6.01,1.48-.51,3.23-2.2,3.58-3.66,1.17-4.83,2.28-9.78,2.49-14.73,1.14-27.23-14.64-49.77-40.9-58.88-28.35-9.83-59.76,2.95-72.04,29.44Zm196.1,135.51H55.16c.12.71.13,1.21.3,1.66.34.94.67,1.89,1.14,2.76,4.94,9.1,12.67,13.39,22.96,13.38,57.49-.02,114.98,0,172.47-.01,10,0,20,.08,29.99-.02,11.11-.12,20.21-7.12,23.04-17.78Zm-79.52-142.34c6.54,12.49,9.2,25.28,8.38,38.8-.42,6.94,4.27,12.92,11.1,14.26,9.41,1.84,17.34-4.7,18.25-15.05,1.48-16.89,17.03-27.28,32.76-21.78,8.17,2.86,13.04,8.82,15.45,17.03,1.86,6.32,6.91,9.87,12.59,8.76-2.42-23.79-14.27-41.03-36.12-50.58-22.15-9.68-43.06-6.66-62.41,8.57Zm-14.1,67.28c-15.4-.95-21.65-11.44-25.33-24.51-1.12-3.96-1.83-8.06-3.25-11.9-1.15-3.1-2.65-6.3-4.79-8.75-3.37-3.86-8.77-2.61-10.37,2.29-4.2,12.85-12.94,21.96-23.57,29.69-6.13,4.46-12.26,4.39-18.52.61-6.92-4.18-10.14-10.74-11.63-18.41-.71-3.67-1.33-7.39-2.43-10.95-1.05-3.42-3.14-6.15-7.18-6.94-.33,1.1-.68,2.03-.89,2.99-3.3,15.36-.58,29.69,6.96,43.37,2.27,4.11,4.98,6.06,9.74,5.41,2.82-.38,5.74-.07,8.61-.07,25.99,0,51.99,0,77.98.01,2.06,0,4.09.14,4.66-2.84Zm-104.43-79.88c-31.98-7.2-62.3,16.65-67.38,40.34,1.37.12,2.75.15,4.1.38,9.21,1.61,17.58,5.35,20.47,14.74,2.79,9.07,16.13,12.03,23.15,7.28,2.61-1.76,3.81-3.8,3.41-7.18-2.4-20.08,2.86-38.06,15.25-54,.36-.46.63-.99.99-1.56Zm65.7-24.61c-.06-.81-.02-1.3-.13-1.76-3.52-15.43-11.78-27.66-24.89-36.53-1.11-.75-2.83-.99-4.21-.87-13.04,1.13-23.26,13.73-21.53,26.77,1.06,8.05-2.19,13.86-8.62,18.16-5.87,3.93-12.55,4.45-19.11,2.83-5.26-1.3-10.34-3.57-15.29-5.85-5.48-2.51-10.86-5.48-17.05-4.77-2.42.28-6.23,1.85-6.67,3.54-1.87,7.14-1.57,14.51.32,21.85.64-.22,1.02-.27,1.32-.46,18.35-11.49,37.97-14.52,58.92-8.9,1.04.28,2.57.08,3.42-.53,15.93-11.5,33.62-15.98,53.53-13.47Zm45.6,26.13c.21.25.41.5.62.74.84-.54,1.71-1.04,2.52-1.63,7.12-5.23,14.98-8.87,23.43-11.42,2.03-.61,4.12-1.8,5.62-3.3,31.77-31.65,63.46-63.37,95.16-95.09.97-.97,1.98-1.93,2.77-3.04,1.79-2.54,1.28-5.01-.75-7.13-2.01-2.1-4.46-2.78-7.11-1.23-1.06.62-1.95,1.54-2.83,2.42-39.05,39.03-78.08,78.08-117.11,117.13-.81.81-1.54,1.7-2.31,2.55Zm6.52,80.92h92.64c.8-5.2,1.55-10.09,2.34-15.19-.82-.23-2.13-.54-3.39-.98-8.06-2.78-13.74-7.99-16.24-16.29-2.18-7.24-7.1-11.19-13.39-10.61-6.83.63-11,5.43-11.58,13.32-1.15,15.83-16.97,28.15-32.51,24.81-4.55-.98-8.73-3.7-13.1-5.62-1.41,3.12-3.03,6.71-4.76,10.57Zm-14.11-90.56c8.02-8.03,16.64-16.87,25.53-25.44,3-2.9,4.53-5.48,3.5-9.96-.82-3.57-2.51-5.37-5.61-4.99-4.25.53-8.36,2.08-12.58,2.98-5.07,1.09-10.18,2.74-15.27,2.74-9.35,0-15.35-4.99-16.72-12.95-.77-4.5-2.94-7.54-7.2-9.17-4.51-1.73-6.86,1.46-9.6,3.98-1.82,1.67-2.27,2.95-.56,5.28,6.99,9.49,11.34,20.13,13.16,31.83.18,1.16,1.36,2.52,2.45,3.13,7.33,4.15,14.77,8.13,22.9,12.57Zm-82.57-63.32c-29.97-7.89-59.21,10.55-67.61,32.1,3.94.63,8.07.9,11.95,2.02,4.04,1.17,7.82,3.22,11.76,4.79,4.62,1.84,9.16,4.07,13.96,5.22,7.13,1.7,11.99-2.98,11.67-10.1-.14-3.21.16-6.51.82-9.66,2.19-10.39,7.96-18.41,17.45-24.37Zm63.48-2.32c5.28,4.11,8.68,8.96,9.63,15.43.17,1.15,1.65,2.76,2.75,2.97,2.62.5,5.47.78,8.04.25,3.38-.7,6.63-2.18,9.87-3.47,5.88-2.34,11.86-3,17.96-1.11,5.4,1.67,9.29,5.14,11.35,10.65,3.41-3.43,6.55-6.59,9.68-9.74-17.28-21.15-48.82-25.7-69.28-14.98Zm-96.48,147.11c-4.9,1.27-9.47,3.09-14.19,3.56-11.46,1.15-23.45-5.34-26.76-14.67-2.52-7.13-7.67-9.27-14.32-9.81-2.63-.21-3.79.73-3.84,3.56-.15,8.22,1.17,16.14,3.87,23.89.8,2.31,2.1,2.89,4.43,2.88,17.36-.09,34.72-.05,52.08-.06.91,0,1.81-.17,2.98-.28-1.64-3.5-3.11-6.63-4.25-9.06Zm247.05,9.19c-.55-4.18,1.49-8.85-3.33-10.92-1.79-.77-4.9-.48-6.47.64-3.57,2.54-2.17,6.59-2.09,10.29h11.9Zm-314.27-.03c-.73-2.87-1.27-5.53-2.11-8.08-.43-1.32-1.4-2.45-2.13-3.67-1.61,1.01-4.08,1.67-4.64,3.09-1.02,2.59-.9,5.63-1.28,8.66h10.16Zm239.23-95.86c3.09.33,5.65.6,8.57.92v-9.52c-2.89,2.9-5.5,5.52-8.57,8.6Z"/>
</svg>