<?xml version="1.0" encoding="UTF-8"?>
<svg id="Layer_1" data-name="Layer 1" width="24" height="24" xmlns="http://www.w3.org/2000/svg" viewBox="0 0 24 23.98">
  <path d="m7.13,20.77c.06.28.12.53.17.78.11.49.23.99.33,1.48.03.14.07.19.22.19,1.64,0,3.29,0,4.93,0,.08,0,.19-.07.24-.14.19-.29.37-.59.54-.89.25-.45.61-.76,1.16-.88v-.23c0-1.85,0-3.71,0-5.56,0-.17-.05-.25-.21-.32-1.35-.63-2.07-1.69-2.11-3.19-.01-.39,0-.77,0-1.16,0-.45.33-.77.78-.78.51,0,1.01,0,1.54,0,0-.11,0-.19,0-.28,0-.94,0-1.87,0-2.81,0-.88.68-1.56,1.54-1.56.88,0,1.55.68,1.56,1.57,0,.24,0,.48,0,.74h-.77c0-.26.01-.52,0-.77-.02-.42-.36-.75-.76-.76-.4,0-.77.32-.78.74-.01,1.03,0,2.06,0,3.11h.77v-.74h.77v.76h.28c1.69,0,3.37,0,5.06,0,.56,0,.87.3.86.87-.02.62.02,1.25-.1,1.85-.23,1.14-.94,1.94-2,2.41-.17.07-.22.16-.22.34,0,1.85,0,3.69,0,5.54,0,.16.02.26.21.3.38.1.66.35.87.69.2.34.4.68.62,1.01.05.08.17.14.26.15.24.02.48,0,.74,0v.76H.02v-.75h1.48v-.31c0-1.92.03-3.84-.01-5.76-.02-.72-.18-1.45-.31-2.17C.8,12.89.4,10.79.02,8.69c-.1-.53.26-.94.8-.94.36,0,.73,0,1.09,0,.48,0,.77.25.85.72.16.86.32,1.72.48,2.59.31,1.68.62,3.35.92,5.03.03.18.13.18.27.18,1.73,0,3.47,0,5.2,0,.28,0,.56,0,.85,0,.63,0,1.13.51,1.14,1.14.03,1.78-1.39,3.23-3.23,3.3-.4.02-.8.05-1.25.07Zm6.03-9.93c0,.4,0,.78,0,1.16.03,1.51,1.18,2.68,2.69,2.7,1.3.02,2.6.02,3.89,0,1.22-.02,2.24-.79,2.58-1.93.19-.63.1-1.27.12-1.92h-9.29Zm2.33,10.42h4.62v-5.78h-4.62v5.78Zm-13.19-2.68v4.62h4.57c-.18-.8-.36-1.59-.53-2.38-.45.02-.86.05-1.28.07-.01-.28-.03-.51-.04-.77.76-.05,1.5-.09,2.23-.14.56-.04,1.13-.05,1.68-.16.71-.14,1.24-.58,1.61-1.24H2.3ZM.79,8.52c.48,2.59.95,5.15,1.42,7.72h1.19c-.48-2.58-.96-5.15-1.44-7.72H.79Zm13.07,14.68h7.89c-.18-.29-.33-.56-.49-.81-.15-.23-.39-.33-.66-.33-1.86,0-3.72,0-5.58,0-.25,0-.47.08-.61.28-.19.27-.35.55-.54.86Zm-3.08-5.41c.15-.58,0-.77-.57-.77-2.55,0-5.09,0-7.64,0h-.27v.77h8.49Z"/>
  <path d="m18.59,7.74v-.77h4.62V.79h-10.81v6.17h1.51v.77c-.56,0-1.12.03-1.68,0-.37-.02-.62-.39-.62-.8,0-1.85,0-3.69,0-5.54,0-.21,0-.42,0-.63,0-.42.34-.75.76-.75,3.62,0,7.24,0,10.86,0,.44,0,.76.33.76.77,0,2.06,0,4.13,0,6.19,0,.42-.31.77-.71.77-1.56,0-3.11,0-4.7,0Z"/>
  <path d="m10.07,10.84h.76v.77h-.76c0,.22,0,.43,0,.64,0,.57-.2.83-.77.94,0,.24,0,.49,0,.74,0,.45-.33.78-.78.78-.52,0-1.03,0-1.55,0-.45,0-.77-.33-.77-.79,0-.24,0-.48,0-.7-.17-.08-.34-.13-.48-.23-.2-.14-.3-.35-.29-.6,0-.25,0-.5,0-.76h-.76v-.78h.76c0-.27,0-.52,0-.77,0-.45.33-.78.78-.78,1.03,0,2.06,0,3.1,0,.45,0,.77.33.77.79,0,.24,0,.48,0,.76Zm-.78-.76h-3.07v2.29h3.07v-2.29Zm-.77,3.1h-1.52v.75h1.52v-.75Z"/>
  <path d="m19.59,4.78c-.17.17-.34.33-.49.49-1.02-1.02-2.05-2.05-3.07-3.07.15-.16.32-.34.48-.5,1.03,1.03,2.05,2.05,3.08,3.08Z"/>
  <path d="m21.15,3.63c-.16.16-.33.32-.49.47-.64-.64-1.28-1.28-1.92-1.92.15-.14.32-.32.48-.47.63.63,1.27,1.27,1.92,1.92Z"/>
  <path d="m14.46,3.73c.16-.15.33-.32.48-.46.38.38.76.76,1.15,1.14-.14.14-.32.31-.49.47-.37-.37-.75-.75-1.15-1.15Z"/>
</svg>